<?xml version="1.0"?>
<svg xmlns="http://www.w3.org/2000/svg" viewBox="0 0 24 24">
    <path d="M 2 2 L 3 6 L 9.4570312 12.078125 L 7.0488281 14.634766 L 6.2070312 13.792969 L 4.7929688 15.207031 L 5.6777344 16.091797 L 3.1699219 18.755859 L 2.7070312 18.292969 L 1.2929688 19.707031 L 4.2929688 22.707031 L 5.7070312 21.292969 L 5.2441406 20.830078 L 7.9082031 18.322266 L 8.7929688 19.207031 L 10.207031 17.792969 L 9.3652344 16.951172 L 12 14.470703 L 14.625 16.941406 L 13.773438 17.792969 L 15.1875 19.207031 L 16.082031 18.3125 L 18.746094 20.818359 L 18.271484 21.292969 L 19.6875 22.707031 L 22.6875 19.707031 L 21.273438 18.292969 L 20.820312 18.746094 L 18.3125 16.082031 L 19.1875 15.207031 L 17.773438 13.792969 L 16.941406 14.625 L 14.542969 12.078125 L 14.548828 12.072266 L 12.001953 9.3730469 L 12 9.375 L 6 3 L 2 2 z M 22 2 L 18 3 L 13.152344 8.1503906 L 15.849609 10.847656 L 21 6 L 22 2 z"/>
</svg>
