<svg xmlns="http://www.w3.org/2000/svg" xmlns:xlink="http://www.w3.org/1999/xlink" version="1.1" x="0px" y="0px" viewBox="0 0 100 125" style="enable-background:new 0 0 100 100;" xml:space="preserve"><style type="text/css">
	.st0{display:none;}
	.st1{display:inline;fill:none;stroke:#000000;stroke-width:5;stroke-miterlimit:10;}
	.st2{display:inline;}
	.st3{fill:none;stroke:#000000;stroke-width:5;stroke-miterlimit:10;}
</style><g class="st0"><circle class="st1" cx="51.8" cy="51.4" r="37"/><path class="st2" d="M85.1,47.8C81.1,33.6,65,25,49.3,28.6c-6.2,1.4-11.5,5.1-14.5,10.2c-2.7,4.5-3.4,9.8-2,14.7   c2.4,8.4,11.9,13.6,21.3,11.5c3.7-0.8,6.9-3.1,8.7-6.1c1.6-2.7,2.1-5.9,1.2-8.9c-1.5-5.2-7.3-8.3-13-7c-2.3,0.5-4.3,1.9-5.4,3.8   c-1,1.7-1.3,3.7-0.8,5.6c0.9,3.3,4.6,5.3,8.2,4.5c1.5-0.3,2.8-1.2,3.5-2.5c0.7-1.1,0.9-2.5,0.5-3.7c-0.2-0.7-0.6-1.3-1.1-1.8   c-0.5-0.7-1.6-1.1-2.9-1.1c0,0-0.1,0-0.1,0c0,0,0,0,0,0c0,0,0,0-0.1,0c-0.4,0-0.9,0.1-1.3,0.2l0,0c0,0,0,0,0,0   c-0.1,0-0.2,0.1-0.3,0.1c0,0-0.1,0-0.1,0c-1,0.4-1.7,1-1.7,1.8c0,1.2,1.5,2.1,3.4,2.1c1.2,0,2.2-0.3,2.8-0.9   c0.2-0.2,0.6-0.1,0.6,0.4c0.1,1.3-0.2,3.6-3.5,4.3c-2.2,0.4-4.8-1.4-5.3-3.2c-0.3-1.1-0.5-2.9,0.1-3.9c0.7-1.2,2.4-2.8,3.9-3.2   c4.2-0.9,9.1,1.4,10.2,5.1c0.6,2.2,0.1,5-1.1,7c-1.4,2.4-4.2,4-7.1,4.7c-7.8,1.8-15.4-2.4-17.3-9.3c-1.2-4.2-0.8-8.2,1.5-12   c2.6-4.4,7-7.2,12.4-8.4c14.2-3.2,25.8,5,29.3,17.6c2.1,7.6,0.5,13.6-3.6,20.5c-4.7,7.9-17.2,19-33.9,15l15.4,4.4   c10.5-2.4,19.5-8.7,24.6-17.3C86.3,65,87.5,56.2,85.1,47.8z"/></g><g><circle class="st3" cx="51.8" cy="51.4" r="37"/><path d="M85.1,47.8C81.1,33.6,65,25,49.3,28.6c-6.2,1.4-11.5,5.1-14.5,10.2c-2.7,4.5-3.4,9.8-2,14.7c2.4,8.4,11.9,13.6,21.3,11.5   c3.7-0.8,6.9-3.1,8.7-6.1c1.6-2.7,2.1-5.9,1.2-8.9c-1.5-5.2-7.3-8.3-13-7c-2.3,0.5-4.3,1.9-5.4,3.8c-1,1.7-1.3,3.7-0.8,5.6   c0.9,3.3,4.6,5.3,8.2,4.5c1.5-0.3,2.8-1.2,3.5-2.5c0.7-1.1,0.9-2.5,0.5-3.7c-0.2-0.7-0.6-1.3-1.1-1.8c-0.5-0.7-1.6-1.1-2.9-1.1   c0,0-0.1,0-0.1,0c0,0,0,0,0,0c0,0,0,0-0.1,0c-0.4,0-0.9,0.1-1.3,0.2l0,0c0,0,0,0,0,0c-0.1,0-0.2,0.1-0.3,0.1c0,0-0.1,0-0.1,0   c-1,0.4-1.7,1-1.7,1.8c0,1.2,1.5,2.1,3.4,2.1c1.2,0,2.2-0.3,2.8-0.9c0.2-0.2,0.6-0.1,0.6,0.4c0.1,1.3-0.2,3.6-3.5,4.3   c-2.2,0.4-4.8-1.4-5.3-3.2c-0.3-1.1-0.5-2.9,0.1-3.9c0.7-1.2,2.4-2.8,3.9-3.2c4.2-0.9,9.1,1.4,10.2,5.1c0.6,2.2,0.1,5-1.1,7   c-1.4,2.4-4.2,4-7.1,4.7c-7.8,1.8-15.4-2.4-17.3-9.3c-1.2-4.2-0.8-8.2,1.5-12c2.6-4.4,7-7.2,12.4-8.4c14.2-3.2,25.8,5,29.3,17.6   c2.1,7.6,0.5,13.6-3.6,20.5c-4.7,7.9-17.2,19-33.9,15l15.4,4.4c10.5-2.4,19.5-8.7,24.6-17.3C86.3,65,87.5,56.2,85.1,47.8z"/><path d="M45.2,77c-8.6-0.2-16.7-5.4-22.2-11.2c-4.4-4.7-5.9-12.5-5.7-18.6l-4.5,1.9c-0.3,7.2,1.4,16.4,6.5,21.9   c6.1,6.6,14.4,9.1,24.1,9.4c0.3,0,0.6,0,0.8,0c10.3,0,18.8-4.6,22.9-12.4l0,0C63.2,73.8,53.4,77.2,45.2,77z"/><path d="M25.4,31.1c2.2-6.7,10.8-11.4,18.5-13.8c6.3-1.9,15.4-0.7,22.2,1.5L65,15.6c-8-2.5-18.5-3.4-25.9-1.2   c-8.8,2.7-13.8,7.5-16.3,15c-0.1,0.2-0.1,0.4-0.2,0.6c-2.4,8.1-2.5,14.9,4,22.7C21.4,43.4,23.3,37.5,25.4,31.1z"/></g></svg>